<?xml version="1.0" encoding="UTF-8"?>
<svg id="Layer_1" data-name="Layer 1" xmlns="http://www.w3.org/2000/svg" viewBox="0 0 483.1 125.35">
  <defs>
    <style>
      .cls-1 {
        fill: #ffffff;
      }

      .cls-2 {
        fill: #ec6608;
      }
    </style>
  </defs>
  <path class="cls-1" d="m108.3,61.02L79.42,6.14h10.2l23.71,47.98,24.42-47.98h9.05l-28.73,54.88,30.31,58.19h-10.2l-25.29-51-25.86,51h-9.05l30.31-58.19Z"/>
  <rect class="cls-1" x="164.9" y="6.14" width="8.19" height="112.92"/>
  <path class="cls-1" d="m192.63,6.14h8.05v18.96h.43c1.58-5.75,4.74-10.34,9.34-13.79,4.74-3.45,10.49-5.17,17.24-5.17,7.76,0,13.5,1.87,17.1,5.75s5.89,8.76,6.75,14.8h.43c1.01-4.88,3.74-9.63,8.48-14.08,4.6-4.45,10.78-6.61,18.53-6.61,8.62,0,15.09,2.44,19.68,7.33,4.45,4.88,6.75,11.78,6.75,20.69v84.91h-8.05V36.17c0-7.33-1.72-12.93-5.17-16.95-3.45-3.88-8.05-5.89-13.79-5.89-8.05,0-14.22,3.02-18.68,8.91-4.45,6.03-6.61,13.79-6.61,23.56v73.27h-8.05V39.91c0-8.62-1.58-15.23-4.6-19.68-3.16-4.6-8.05-6.9-14.8-6.9-8.19,0-14.37,3.16-18.53,9.34s-6.32,13.94-6.32,23.27v73.27h-8.05V6.14h-.14Z"/>
  <path class="cls-1" d="m329.98,62.17c0,6.18.14,11.78.57,16.95.43,5.03,1.44,10.2,3.02,15.37,1.58,5.17,4.17,9.34,7.61,12.64s8.19,5.03,14.08,5.03c5.17,0,9.63-1.15,13.22-3.45,3.59-2.3,6.32-5.03,8.33-8.48,1.87-3.3,3.3-6.75,3.88-10.06.72-3.3,1.01-6.32,1.01-8.76h7.9c0,4.45-.57,8.76-1.87,13.22-1.29,4.45-3.16,8.48-5.89,12.21s-6.18,6.75-10.49,9.05-9.34,3.45-15.23,3.45c-6.9,0-12.64-1.29-17.1-4.02-4.6-2.73-8.05-6.61-10.63-11.64s-4.31-11.21-5.46-18.39-1.58-15.66-1.58-25.43c0-16.95,3.02-30.03,9.05-39.51,6.03-9.34,15.09-14.08,27.01-14.08s20.69,4.74,25.86,14.08c5.17,9.48,7.76,23.42,7.76,41.81h-61.06Zm52.44-7.04c0-5.75-.29-11.06-.86-15.66-.57-4.74-1.87-9.05-3.59-13.07-1.72-4.02-4.31-7.18-7.76-9.63s-7.76-3.59-13.07-3.59c-5.6,0-10.34,1.44-13.94,4.17-3.59,2.87-6.47,6.47-8.33,10.78-1.87,4.45-3.16,8.91-3.88,13.5-.72,4.6-1.01,9.05-1.01,13.36h52.44v.14Z"/>
  <path class="cls-1" d="m466.03,103.69c0,4.88,1.58,7.18,4.74,7.18,2.01,0,3.74-.29,5.03-1.01v6.18c-1.72,1.29-4.45,1.87-8.33,1.87-2.01,0-4.17-1.01-6.18-3.02-2.01-2.01-3.16-4.88-3.16-8.76v-6.75h-.43c-1.72,5.75-5.03,10.49-10.06,14.22-5.03,3.74-11.21,5.6-18.25,5.6-8.91,0-15.66-2.73-20.26-8.33-4.6-5.6-6.75-12.79-6.75-21.84,0-8.33,1.72-14.8,5.32-19.54,3.45-4.74,9.05-8.19,16.67-10.2l23.27-6.47c4.45-1.29,7.33-3.02,8.62-5.17s2.01-5.75,2.01-10.78c0-9.05-1.87-15.37-5.46-18.68s-8.76-5.03-15.37-5.03c-8.48,0-14.65,2.3-18.25,7.04-3.59,4.74-5.32,11.06-5.32,19.25h-7.9c0-4.17.43-8.05,1.29-11.92.86-3.74,2.44-7.33,4.74-10.49,2.3-3.16,5.46-5.89,9.34-7.9,4.02-2.01,9.05-3.02,15.09-3.02s10.63.72,14.51,2.16,6.9,3.45,9.05,6.03c2.16,2.59,3.74,5.6,4.6,8.91.86,3.3,1.29,7.18,1.29,11.21v69.25h.14Zm-7.76-50h-.43c-1.15,1.87-2.44,3.3-4.02,4.02-1.58.72-4.31,1.72-8.33,2.73-.57.14-1.01.29-1.29.43l-15.95,4.31c-6.18,1.58-10.63,4.31-13.22,8.19-2.59,3.74-3.88,9.05-3.88,15.66,0,7.33,1.72,12.93,5.03,17.1,3.3,4.02,8.33,6.03,14.94,6.03,8.91,0,15.66-3.16,20.4-9.77,4.6-6.47,6.9-15.23,6.9-26.43v-22.27h-.14Z"/>
  <path class="cls-2" d="m73.96,62.32c0,18.39-14.94,33.33-33.33,33.33S7.3,80.71,7.3,62.32,22.24,28.99,40.63,28.99c18.39-.14,33.33,14.8,33.33,33.33Z"/>
  <path class="cls-1" d="m329.98,62.17c0,6.18.14,11.78.57,16.95.43,5.03,1.44,10.2,3.02,15.37,1.58,5.17,4.17,9.34,7.61,12.64s8.19,5.03,14.08,5.03c5.17,0,9.63-1.15,13.22-3.45,3.59-2.3,6.32-5.03,8.33-8.48,1.87-3.3,3.3-6.75,3.88-10.06.72-3.3,1.01-6.32,1.01-8.76h7.9c0,4.45-.57,8.76-1.87,13.22-1.29,4.45-3.16,8.48-5.89,12.21s-6.18,6.75-10.49,9.05-9.34,3.45-15.23,3.45c-6.9,0-12.64-1.29-17.1-4.02-4.6-2.73-8.05-6.61-10.63-11.64s-4.31-11.21-5.46-18.39-1.58-15.66-1.58-25.43c0-16.95,3.02-30.03,9.05-39.51,6.03-9.34,15.09-14.08,27.01-14.08s20.69,4.74,25.86,14.08c5.17,9.48,7.76,23.42,7.76,41.81h-61.06Zm52.44-7.04c0-5.75-.29-11.06-.86-15.66-.57-4.74-1.87-9.05-3.59-13.07-1.72-4.02-4.31-7.18-7.76-9.63s-7.76-3.59-13.07-3.59c-5.6,0-10.34,1.44-13.94,4.17-3.59,2.87-6.47,6.47-8.33,10.78-1.87,4.45-3.16,8.91-3.88,13.5-.72,4.6-1.01,9.05-1.01,13.36h52.44v.14Z"/>
  <path class="cls-1" d="m466.03,103.69c0,4.88,1.58,7.18,4.74,7.18,2.01,0,3.74-.29,5.03-1.01v6.18c-1.72,1.29-4.45,1.87-8.33,1.87-2.01,0-4.17-1.01-6.18-3.02-2.01-2.01-3.16-4.88-3.16-8.76v-6.75h-.43c-1.72,5.75-5.03,10.49-10.06,14.22-5.03,3.74-11.21,5.6-18.25,5.6-8.91,0-15.66-2.73-20.26-8.33-4.6-5.6-6.75-12.79-6.75-21.84,0-8.33,1.72-14.8,5.32-19.54,3.45-4.74,9.05-8.19,16.67-10.2l23.27-6.47c4.45-1.29,7.33-3.02,8.62-5.17s2.01-5.75,2.01-10.78c0-9.05-1.87-15.37-5.46-18.68s-8.76-5.03-15.37-5.03c-8.48,0-14.65,2.3-18.25,7.04-3.59,4.74-5.32,11.06-5.32,19.25h-7.9c0-4.17.43-8.05,1.29-11.92.86-3.74,2.44-7.33,4.74-10.49,2.3-3.16,5.46-5.89,9.34-7.9,4.02-2.01,9.05-3.02,15.09-3.02s10.63.72,14.51,2.16,6.9,3.45,9.05,6.03c2.16,2.59,3.74,5.6,4.6,8.91.86,3.3,1.29,7.18,1.29,11.21v69.25h.14Zm-7.76-50h-.43c-1.15,1.87-2.44,3.3-4.02,4.02-1.58.72-4.31,1.72-8.33,2.73-.57.14-1.01.29-1.29.43l-15.95,4.31c-6.18,1.58-10.63,4.31-13.22,8.19-2.59,3.74-3.88,9.05-3.88,15.66,0,7.33,1.72,12.93,5.03,17.1,3.3,4.02,8.33,6.03,14.94,6.03,8.91,0,15.66-3.16,20.4-9.77,4.6-6.47,6.9-15.23,6.9-26.43v-22.27h-.14Z"/>
</svg>